<svg width="21" height="20" viewBox="0 0 21 20" fill="none" xmlns="http://www.w3.org/2000/svg">
<path d="M15.0993 0.89556C14.2793 0.890755 13.4384 1.21791 12.7158 1.91959C11.7667 2.84117 11.4719 3.67078 11.6384 4.70586L11.684 4.98982L11.4003 4.9437C9.31517 4.60585 6.73456 4.77651 3.79845 5.96425C4.66156 6.33421 6.24574 6.95171 8.00372 7.79592L8.56119 8.0638L7.95519 8.18661C5.63381 8.65715 2.87923 10.0163 0.363282 12.9826C1.48879 12.8951 3.78905 12.6244 6.18813 12.6281C7.52173 12.6302 8.83601 12.7224 9.90672 13C10.9775 13.2776 11.8323 13.7462 12.1538 14.5493L12.1757 14.6043L12.1653 14.6625C12.1125 14.9622 12.0608 15.2322 12.0119 15.4533C11.8999 15.9604 11.4614 16.3706 10.8868 16.7358C10.3122 17.101 9.58311 17.4202 8.82561 17.6914C7.3106 18.234 5.69819 18.5807 4.98635 18.6468C4.83505 18.6609 4.77464 18.7152 4.71633 18.8211C4.65803 18.927 4.62586 19.0933 4.62114 19.2673C4.61483 19.4997 4.64599 19.6935 4.67155 19.825C9.30498 20.2048 12.7506 19.0492 15.2372 18.0625C18.0311 16.7815 19.797 14.2517 20.1804 11.9741C20.4206 10.547 20.3691 9.84759 20.1374 9.25194C19.9058 8.65628 19.4617 8.12735 18.8984 7.11726C18.5364 6.46814 18.3344 5.83127 18.2092 5.23812L18.1827 5.11316L18.2824 5.03326C19.3176 4.2034 20.1607 3.29732 20.4667 2.63768C19.8387 1.9698 18.7535 1.82864 17.5394 1.95847L17.4397 1.9689L17.3694 1.8973C16.7224 1.23824 15.9194 0.900433 15.0993 0.89556ZM15.4629 2.43764C15.6357 2.43493 15.8048 2.49224 15.9421 2.60014C16.0794 2.70804 16.1769 2.86005 16.2183 3.03104C16.2421 3.12968 16.2467 3.23198 16.2317 3.33207C16.2166 3.43215 16.1824 3.52808 16.1308 3.61438C16.0792 3.70069 16.0113 3.77566 15.931 3.83503C15.8507 3.89441 15.7595 3.93701 15.6627 3.96042C15.5658 3.98385 15.4653 3.98762 15.3667 3.97152C15.2681 3.95541 15.1735 3.91972 15.0881 3.86654C15.0028 3.81335 14.9285 3.74371 14.8694 3.66154C14.8103 3.57938 14.7676 3.48631 14.7437 3.38767C14.7199 3.28903 14.7153 3.18674 14.7303 3.08665C14.7453 2.98656 14.7796 2.89063 14.8312 2.80433C14.8828 2.71803 14.9507 2.64305 15.031 2.58368C15.1113 2.52431 15.2025 2.4817 15.2993 2.45829C15.3529 2.44538 15.4077 2.43846 15.4629 2.43764Z" fill="white"/>
</svg>
