<svg width="6" height="6" viewBox="0 0 6 6" fill="none" xmlns="http://www.w3.org/2000/svg">
<path d="M2.66441 1.92647V3.1596C2.66441 3.27688 2.72779 3.38746 2.82786 3.44777L3.86856 4.06769C3.98864 4.13805 4.14208 4.09784 4.21213 3.98056C4.28217 3.85993 4.24548 3.70579 4.1254 3.63542L3.16809 3.06242V1.92312C3.16475 1.78908 3.05134 1.67515 2.91458 1.67515C2.77782 1.67515 2.66441 1.78908 2.66441 1.92647ZM6 2.17779V0.405166C6 0.254376 5.81988 0.180657 5.71648 0.287885L5.12274 0.884343C4.81029 0.570437 4.43277 0.329612 4.01708 0.179023C3.60139 0.0284334 3.15776 -0.0282151 2.71778 0.0131125C1.32017 0.140446 0.169397 1.26969 0.0159601 2.67372C-0.0651474 3.46097 0.165055 4.24869 0.656906 4.86696C1.14876 5.48523 1.86283 5.88449 2.64508 5.97859C3.42733 6.0727 4.21506 5.85412 4.83832 5.37C5.46158 4.88588 5.87043 4.17503 5.97665 3.39081C6 3.18975 5.84323 3.01551 5.64309 3.01551C5.47631 3.01551 5.33622 3.13949 5.31621 3.30368C5.17278 4.47314 4.16876 5.37788 2.96462 5.36113C1.72712 5.34437 0.683077 4.29555 0.663064 3.04902C0.64305 1.74217 1.70043 0.669886 2.99797 0.669886C3.64174 0.669886 4.22547 0.934606 4.64909 1.35682L3.95195 2.05715C3.84521 2.16438 3.9186 2.34533 4.0687 2.34533H5.83322C5.92662 2.34533 6 2.27161 6 2.17779Z" fill="white"/>
</svg>
