<svg width="24" height="20" viewBox="0 0 24 20" fill="none" xmlns="http://www.w3.org/2000/svg">
<path d="M9.6 12.9999H9.59928C9.59928 12.3932 9.64968 12.6725 6.40968 6.1935C5.748 4.8699 3.85272 4.86726 3.18984 6.1935C-0.0772799 12.7277 0.00072 12.4121 0.00072 12.9999H0C0 14.6566 2.1492 15.9999 4.8 15.9999C7.4508 15.9999 9.6 14.6566 9.6 12.9999ZM4.8 6.9999L7.5 12.3999H2.1L4.8 6.9999ZM23.9993 12.9999C23.9993 12.3932 24.0497 12.6725 20.8097 6.1935C20.148 4.8699 18.2527 4.86726 17.5898 6.1935C14.3227 12.7277 14.4007 12.4121 14.4007 12.9999H14.4C14.4 14.6566 16.5492 15.9999 19.2 15.9999C21.8508 15.9999 24 14.6566 24 12.9999H23.9993ZM16.5 12.3999L19.2 6.9999L21.9 12.3999H16.5ZM19.8 17.1999H13.2V6.1467C14.0815 5.76078 14.7434 4.96638 14.9395 3.9999H19.8C19.9591 3.9999 20.1117 3.93669 20.2243 3.82417C20.3368 3.71164 20.4 3.55903 20.4 3.3999V2.1999C20.4 2.04077 20.3368 1.88816 20.2243 1.77564C20.1117 1.66312 19.9591 1.5999 19.8 1.5999H14.3866C13.8389 0.875342 12.9785 0.399902 12 0.399902C11.0215 0.399902 10.1611 0.875342 9.61344 1.5999H4.2C4.04087 1.5999 3.88826 1.66312 3.77574 1.77564C3.66321 1.88816 3.6 2.04077 3.6 2.1999V3.3999C3.6 3.55903 3.66321 3.71164 3.77574 3.82417C3.88826 3.93669 4.04087 3.9999 4.2 3.9999H9.06048C9.25656 4.9659 9.918 5.76078 10.8 6.1467V17.1999H4.2C4.04087 17.1999 3.88826 17.2631 3.77574 17.3756C3.66321 17.4882 3.6 17.6408 3.6 17.7999V18.9999C3.6 19.159 3.66321 19.3116 3.77574 19.4242C3.88826 19.5367 4.04087 19.5999 4.2 19.5999H19.8C19.9591 19.5999 20.1117 19.5367 20.2243 19.4242C20.3368 19.3116 20.4 19.159 20.4 18.9999V17.7999C20.4 17.6408 20.3368 17.4882 20.2243 17.3756C20.1117 17.2631 19.9591 17.1999 19.8 17.1999V17.1999Z" fill="white"/>
</svg>
